<?xml version="1.0" encoding="utf-8"?>
<!-- Svg Vector Icons : http://www.onlinewebfonts.com/icon -->
<!DOCTYPE svg PUBLIC "-//W3C//DTD SVG 1.1//EN" "http://www.w3.org/Graphics/SVG/1.1/DTD/svg11.dtd">
<svg version="1.1" xmlns="http://www.w3.org/2000/svg" xmlns:xlink="http://www.w3.org/1999/xlink" x="0px" y="0px" viewBox="0 0 1000 1000" enable-background="new 0 0 1000 1000" xml:space="preserve">
<metadata> Svg Vector Icons : http://www.onlinewebfonts.com/icon </metadata>
<g><path d="M10,10v980h980V10H10L10,10z M798.9,876.1c-21.9,0-581,0-596.3,0c-15,0-13.7-15.3-13.7-15.3c0-122.8,46.4-322.3,187.5-399.2h1c-38.4-35.6-62.7-86.3-62.7-142.9c0-107.7,87.2-194.7,194.7-194.7c107.7,0,194.7,87.3,194.7,194.7c0,60.1-27.2,113.8-70.1,149.5c164.3,98.4,176.5,339.1,176.5,375.7C811.1,862.6,812.9,876.1,798.9,876.1L798.9,876.1z"/></g>
</svg>